<svg xmlns="http://www.w3.org/2000/svg" viewBox="0 0 356 375.66"><defs><style>.cls-1,.cls-3,.cls-4,.cls-5,.cls-6,.cls-7{isolation:isolate;font-family:QUARTZO-Bold, QUARTZO;font-weight:700;}.cls-1{font-size:185px;}.cls-1,.cls-2{fill:#818963;}.cls-3,.cls-4,.cls-5,.cls-6,.cls-7{font-size:67.76px;fill:#fff;}.cls-4{letter-spacing:-0.02em;}.cls-5{letter-spacing:-0.07em;}.cls-6{letter-spacing:-0.18em;}.cls-7{letter-spacing:-0.02em;}.cls-8{fill:none;stroke:#818963;stroke-miterlimit:10;stroke-width:2px;}</style></defs><g id="Layer_2" data-name="Layer 2"><g id="Layer_1-2" data-name="Layer 1"><text class="cls-1" transform="translate(0 304) scale(1.05 1)">Lea</text><text class="cls-1" transform="matrix(-1, 0, 0, 1, 356, 304)">L</text><polygon class="cls-2" points="341.43 162.18 315.13 188.47 313.97 189.63 179.25 54.91 151.8 27.46 179.25 0 341.43 162.18"/><polygon class="cls-2" points="206.7 27.45 179.25 54.91 44.52 189.63 17.07 162.18 151.8 27.46 179.25 0 206.7 27.45"/><polygon class="cls-2" points="341.43 162.18 351.38 169.88 351.38 188.47 313.98 188.47 341.43 162.18"/><polygon class="cls-2" points="17.07 162.18 4.86 169.88 4.86 188.47 44.52 188.47 17.07 162.18"/><polygon class="cls-2" points="4.86 188.47 4.86 304 75.25 304 75.25 265.15 45.94 265.82 46.57 187.58 4.86 188.47"/><polygon class="cls-2" points="312.18 187.84 312.18 265.15 284.4 265.15 284.4 304 351.38 304 351.38 188.47 312.18 187.84"/><text class="cls-3" transform="translate(4.86 362.31)">H</text><text class="cls-4" transform="translate(43.69 362.31)">A</text><text class="cls-3" transform="translate(90.78 362.31)">R</text><text class="cls-5" transform="translate(134.14 362.31)">D</text><text class="cls-6" transform="translate(169.58 362.31)">W</text><text class="cls-4" transform="translate(224.74 362.31)">A</text><text class="cls-7" transform="translate(271.83 362.31)">R</text><text class="cls-3" transform="translate(314.11 362.31)">E</text><line class="cls-8" x1="75.25" y1="303" x2="284.41" y2="303"/></g></g></svg>